<svg xmlns="http://www.w3.org/2000/svg" viewBox="0 0 155.94 75.91"><defs><style>.cls-1,.cls-2{fill:#fff;}.cls-2{font-size:23.31px;font-family:LeckerliOne-Regular, Leckerli One;}</style></defs><title>Asset 1</title><g id="Layer_2" data-name="Layer 2"><g id="Layer_1-2" data-name="Layer 1"><path class="cls-1" d="M94.93,44.78c-.1-.13-.33.23-.39.27C94.81,45.15,95,44.7,94.93,44.78Z"/><polygon class="cls-1" points="97.62 45.65 97.49 45.77 98.04 45.64 97.62 45.65"/><path class="cls-1" d="M99.66,47c.18-.73-.81-.36-1-.81l0-.17-.48.36C98.66,46.61,99.45,46.62,99.66,47Z"/><path class="cls-1" d="M100,49c.06-.28.38-.07-.23-.22a.28.28,0,0,1,0,.08A1.42,1.42,0,0,1,100,49Z"/><path class="cls-1" d="M99.82,48.85c-.24-.1,0,.29,0,0Z"/><path class="cls-1" d="M101,49.29l-.42.06c0,.18.25.36.09.41C101,49.81,101,49.63,101,49.29Z"/><path class="cls-1" d="M101.51,49h-.2C101.3,49.07,101.33,49.12,101.51,49Z"/><path class="cls-1" d="M100.87,49l.44,0c0-.12.11-.33-.2,0C101.24,48.81,101.08,49,100.87,49Z"/><path class="cls-1" d="M100.73,48.81c-.1-.23-.27-.43.15-.48C100.25,48.1,100.09,48.59,100.73,48.81Z"/><path class="cls-1" d="M100.15,46.42l-.11-.31-.3.1C99.89,46.16,100,46.62,100.15,46.42Z"/><path class="cls-1" d="M102.79,50.57a3.22,3.22,0,0,0,.11-.6l-.3.05C102.68,50.17,102.86,50.36,102.79,50.57Z"/><path class="cls-1" d="M102.9,50l.45-.08C103.06,49.72,103,49.8,102.9,50Z"/><polygon class="cls-1" points="101.92 48.31 101.13 48.5 102.03 48.35 101.92 48.31"/><polygon class="cls-1" points="104.14 51.16 103.8 51.41 104.36 51.06 104.14 51.16"/><path class="cls-1" d="M105.06,51.47c-.25.22,0,.54-.19.64a1.44,1.44,0,0,0,.84-.25C105.47,51.9,105.26,51.79,105.06,51.47Z"/><path class="cls-1" d="M106.14,51.66a2,2,0,0,0-.43.2A1.09,1.09,0,0,0,106.14,51.66Z"/><path class="cls-1" d="M103.92,50.2a.64.64,0,0,0,.11.52l0-.45Z"/><path class="cls-1" d="M104.06,50.25v0l.28.14Z"/><path class="cls-1" d="M103.89,50.19h0S103.92,50.14,103.89,50.19Z"/><path class="cls-1" d="M102.64,49.07c.3-.12.82-.16.57-.68C103,48.59,103.09,48.89,102.64,49.07Z"/><path class="cls-1" d="M103.92,49.63l-.32-.24c0,.1,0,.28-.19.35Z"/><polygon class="cls-1" points="104.16 49.58 103.92 49.63 104.05 49.72 104.16 49.58"/><path class="cls-1" d="M105.63,51.05a.89.89,0,0,1,.62,0,1.85,1.85,0,0,0-.6-.35C105.57,50.79,105.39,51,105.63,51.05Z"/><path class="cls-1" d="M104.87,50.64h0S104.9,50.57,104.87,50.64Z"/><path class="cls-1" d="M108.23,51.7v-.09l0,.07Z"/><path class="cls-1" d="M105.64,50.59c-.13-.14-.27-.07-.4,0a1.22,1.22,0,0,1,.41.07S105.7,50.59,105.64,50.59Z"/><path class="cls-1" d="M106.76,51.67a1.55,1.55,0,0,0-.2-.32C106.6,51.51,106.7,51.77,106.76,51.67Z"/><path class="cls-1" d="M104.93,50.76h0C104.92,50.88,104.93,50.83,104.93,50.76Z"/><path class="cls-1" d="M104.93,50.76a1.1,1.1,0,0,0,.31-.15.85.85,0,0,0-.32,0A.57.57,0,0,1,104.93,50.76Z"/><path class="cls-1" d="M109.62,49.26c-.14.37-.66.59-.89.07-.43.18-.61,1.49-.51,2.28.06-.16.11-.31.55-.42-.07-.25-.66-.74-.25-1,.54-.05.35.25.53.53-.06-.53.82-.5.92-1.24l-.49.13C109.5,49.52,109.7,49.39,109.62,49.26Z"/><path class="cls-1" d="M107.52,51.35h-.17c.16.12.23.31.37.68.32-.11.42-.23.47-.35l-.74-.29Z"/><path class="cls-1" d="M106.67,51.11c.26-.36.68-.41.61-.93-.45-.13-.43.23-.75.31.75.16-.29.16.15.57a1.18,1.18,0,0,1-.43,0,2.34,2.34,0,0,1,.31.32v0h0c0-.06,0-.09,0-.05h0a.46.46,0,0,1,.09-.15c.18.16,0,.12-.09.15l0,.05h0l.8,0A1.66,1.66,0,0,0,106.67,51.11Z"/><path class="cls-1" d="M104,47.72a.3.3,0,0,1,0,.1C104,47.79,104,47.76,104,47.72Z"/><path class="cls-1" d="M104.12,48.08c-.07,0-.18.17-.32.06s.09-.19.14-.32c-.15.06-.47.12-.25.45l.07,0c.21.27.36.91.28.94A3.62,3.62,0,0,0,104.12,48.08Z"/><path class="cls-1" d="M105.41,49.52l.66,0-.17-.46-.06.21C105.54,49.1,105.51,49.38,105.41,49.52Z"/><polygon class="cls-1" points="108.24 51.92 108.02 52.33 108.56 51.83 108.24 51.92"/><polygon class="cls-1" points="109.05 52.12 108.91 52.49 109.18 52.32 109.05 52.12"/><path class="cls-1" d="M154.13,52.85l.19-.1A.43.43,0,0,0,154.13,52.85Z"/><path class="cls-1" d="M152.85,52.74l0,.19C152.87,52.83,152.9,52.75,152.85,52.74Z"/><path class="cls-1" d="M128.59,55.45c.22.4.45,1,.46.56l0-.44A.41.41,0,0,1,128.59,55.45Z"/><path class="cls-1" d="M142.12,54.23l-.06-.14-.21.4Z"/><path class="cls-1" d="M142.46,52.45l.32.31A1.19,1.19,0,0,0,142.46,52.45Z"/><path class="cls-1" d="M146.94,56.47l-.38.32C146.9,56.93,146.83,56.66,146.94,56.47Z"/><path class="cls-1" d="M117.25,53.8a1.24,1.24,0,0,0,.53.36C117.54,53.86,117.39,53.46,117.25,53.8Z"/><path class="cls-1" d="M153.33,57.41a.29.29,0,0,0,.17-.25A.26.26,0,0,0,153.33,57.41Z"/><path class="cls-1" d="M118.43,54.26s-.07-.07-.1-.12a.94.94,0,0,1-.55,0C118,54.37,118.16,54.52,118.43,54.26Z"/><path class="cls-1" d="M126.33,39.88s0-.05,0-.08S126.3,39.86,126.33,39.88Z"/><path class="cls-1" d="M123.12,31.86a1.49,1.49,0,0,1,.29.14C123.38,32,123.29,31.9,123.12,31.86Z"/><path class="cls-1" d="M112.21,53.14c-.18,0,0,0,0,0Z"/><path class="cls-1" d="M111.8,51.27a.32.32,0,0,0,.12-.18A.46.46,0,0,1,111.8,51.27Z"/><path class="cls-1" d="M120.51,51.85h0C120.49,51.76,120.5,51.78,120.51,51.85Z"/><path class="cls-1" d="M112,52.89a1,1,0,0,0,.19.17A1.22,1.22,0,0,0,112,52.89Z"/><path class="cls-1" d="M112,53.09l-.14-.07C111.81,53.08,111.82,53.13,112,53.09Z"/><path class="cls-1" d="M112.45,53.17a.5.5,0,0,1-.26-.11s0,.07,0,.08Z"/><path class="cls-1" d="M137.12,48.47s0,0,0-.06C136.87,48.43,137,48.46,137.12,48.47Z"/><path class="cls-1" d="M133.43,51.46s0,0,0,0l0,0Z"/><path class="cls-1" d="M134.06,51.2c-.31.51-.45.43-.63.3l.07,1.26Z"/><path class="cls-1" d="M151.32,57.39c.13.17.27.31.41.47-.7.55-1.09.21-.73.85.31-1.31,2,.18,2.18-1.19l.29.31c-.09,0-.12.05-.2,0,.51.63.54-.62,1.07-.71l.2-3.81a.32.32,0,0,1-.19,0c-.24-.12-.39-.32-.22-.47l-.56.3a.12.12,0,0,1,.06-.24l-.83.06v0a4.57,4.57,0,0,1-.55.65c-.2-.21.11-.14.07-.31l-.48.29c-.16-.36.24-.67.55-.6-.33-1.38-.4.31-1.26-.54l.44-.14c-.23-.79-.58-.53-1-1.05.1.26.89,1.28.37,1.58-.13-.11-.31-.17-.6.08,0-.48-.24-.38-.56-.38l.06-.63c-.36.16-.36.48-.58.76-.39-.1-.44-.6-.5-1-.62-.15.38.83-.37.89-.51-.28-.89,0-1.55.28-.35-.25.1-.38,0-.58l-.37.49c-.07,0,0-.17,0-.25-.29.17-.07.63-.51.77-.18.7-.8-1.09-1.4-.34-.11-.19.1-.39.08-.64a4.17,4.17,0,0,0-1.32,1l-.47-.46c.33.51-.2,1-.66,1.47.12.24.21.45.28.55l-.7.29c-.07-.11,0-.33.15-.58a.93.93,0,0,0-.14.14c-.22-.26-.06-.62.14-1l.21.42a2.66,2.66,0,0,0,.39-1.17.46.46,0,0,1-.24.16.45.45,0,0,0,.08-.26c0-.07-.1.06-.23.22l-.09-.73-.06.28-.83-.52c-.69.66-1.34,1.66-2.36,1.86.3-.5.13-.85.21-1.46.21.68.79-.2,1.29,0-.26-.09-.17-.38-.09-.47l-1,.5c.07-.5-.16-.39-.38-.62.09,1-.75.6-1.15.86,0-.33.13-.67.58-.54-.43-.8-.76,1.11-1.19.42.11,0,.16.06.22-.11-.29.28-.9,0-.72-.3h.11c-.73-.19-2.25-.24-2.44.59a10,10,0,0,1,.26-1.17l-1.62,2.7c.19-.71-.07-2.49.59-2.83a.6.6,0,0,0-.77,0c.11.11.19,1.08,0,1.13-.37-.86-.27-.47-.75-1.22.17.18-.16,1.3-.44,1.23a7.61,7.61,0,0,1,.22-1.24l-.83,1c.2-.18.13-.94,0-1.27,0,.22-.61-.09-.81,0l.27.29c-.78-.26-1,1.48-1.75,1.33.12-.22.4-1.39,0-1.58-.25.55-1.14,2.66-1.9,3l-.09-.34-.59.31a22.58,22.58,0,0,1,2.2-3.17c-.27-.29,0-.39-.49-.41-.12-.33.3-.44.43-.44l-1-.32c0,.67-.88.57-.91,1.13l1.22-.56c0,.68-.88,1.82-1.61,1.61-.15-.29.29-1.17.3-1.39-.12.22-.75.35-.8.18l.36-.32c-.38-.3-.78.8-1.19.1-.17-.06-.4-.92-.48-.53a10.11,10.11,0,0,1-.33,3.71,6.38,6.38,0,0,1-1-1.25c-.2-.63.61-1.36.44-1.91a1,1,0,0,1-.29.45c-.16-.18.15-.55-.25-.52-.15.66-.77-.17-.26.54-.4.14-.38-.19-.83-.22a2.09,2.09,0,0,1-1,1.56,1.05,1.05,0,0,0,0-.51c-.77-.18-1.14-.54-1.86-.67,0-.17-.35-.43-.15-.69-.13.1-.26.31-.48.29-.33-.65.5,0,.3-.76-.1.38-.67.44-1,.63,0,.62.72.24,1.07.05a2.46,2.46,0,0,1-1.67,1.86c-.65.09-.17-.58-.29-.49-1.11-.36-1.26,1.28-2.09.48-.26-.61.2-1,.2-1.45.53-.1.68.49,1,.53l-.36-.33c.19-.14.54-.21.69,0-.22-.52-1.88-.47-2.64-1.1-.19.14-.5.26-.42.5h.29c.15.48-.66.46-.36.74-.43.21-1,.57-1.43.21l0-.62c0,.17.25.43.44.29-.28.21-.58-1-1-.29l.25.51c-.44.19-1.08.69-1.5.38,0,.64.12,0,.27.73-.06-.93,1.2.37,1-.65.13.89.5.48.78,1.28,0-.2-.06-.42.31-.22a.7.7,0,0,1,.13-.16l0,0v0s0,0,0,0a.68.68,0,0,1-.13-.35c.31-.4.92-.24,1.19-.42.21.14-.15.2-.07.44l.39-.28c-.06.44.47.86-.14,1l.49.12a.84.84,0,0,0,.92.37c.22.14.69-.38.42-.07l.83-.13v.11c.77.21,1.71-.45,2.46.5a1.34,1.34,0,0,1,1,0l0,.4c.35-.09.94.53,1.14.15.21,1.09,1.59.46,2.15.72l.09-.5a3.07,3.07,0,0,0,1.32-.16l0-.44c.47-.31,1.05.45,1.73.49-.06.16-.23.09-.34,0,.69,1.1,1.79-.53,2.44.29a.29.29,0,0,1,.44.06h-.05l.08,0c.07.08.14.18.22.26a1,1,0,0,0-.18-.26,1.39,1.39,0,0,0,.58-.11l0,.49h0c.19.2.2-.21.13-.58a1.26,1.26,0,0,0,.31-.26c.08.8.57-.19.71.66.18-.39,1.08-.19,1.29-1,0,.11.05.17-.06.16.22.12.44.25.68,0l0,.62.6-.77c.26.41.37.64,0,1.07.82-.64.63-.2,1.34-.85L134,55c.22,0,.64-.48.74-.14.43.8,2.48.35,3.71,1.17-.14-1.18.56.58.69-.32,0,.28.22.46,0,.68.68-.21,1,.52,1.48-.19,0,.28-.18.38-.13.55.06,0,.24-.22.29,0s-.12.23-.23.34c.68,0,.82-.83.94-1.62.31.41.49.37.78-.13.1.27.27.56-.16.62.24,0,1.41.5,1.49-.13.06.16.33.07.4,0a4.06,4.06,0,0,0,1.09.13L145,55.8c.26-.75.44-.13.87-.19l0,.07c.92.63.44-.23,1.34.48l0-.48c.17-1,.8.67,1.38.31l-.18-.28c.33-.33.74,1.46,1,1.61.06.09-.11.13-.21.19.75.67.15-.62.75-.72.09.35-.2.85.19.94.18.29,1.23-1,1.73-.33-.1-.27-.2-.54.09-.72s1.07,1.06,1.5.27a.29.29,0,0,1,.06.21c.2-.12.54-.2.82-.33l.17-3.17a.91.91,0,0,0-.43.39c-.08-.85-.53-.66-1-.51s-.88.33-.75-.42c-.29,0-.59-.07-.89-.11l.06-.14c-.53-.21-.81.06-1.11.37-.11-.14,0-.25.06-.33-.73-.52-.8-.5-1.75,0l.1-.49c-.3.19-.85-1.16-1.83-1a.36.36,0,0,1,.18-.16c-1.15.11-1.31-2.25-2.52-.88-.26,0-.52,0-.78,0,.64.58-.53.6-.39,1-.34-.09-.44-.93,0-.78v.11c.63-.72-.7-.85-.32-1.38-1.39-.88-2.34-2.28-3.48-3.31l-.33.67-.39-.38c0-.22.23-.56.5-.28.12-.45-.71-.17-.83,0-.37-.73.79-.45.62-.62l-.27-.16v.11c-.39,0-.62.28-.94-.06-.12-.31.19-.44.12-.54s0-.08-.12-.13l-.46-.51-.19.61c-.42,0-.45-.47-.67.23C137,43.9,135,42.91,135,42.47a1.53,1.53,0,0,1-1.26-.71c0,.18-.38.7-.66.32,1.06-.84-.19-1,.21-2-.2.69-1.05-.8-1.31.21-.2-.34.33-.37.34-.8-1-.27-1.23-1.66-2.21-2.32-.13.12-.17.45-.53.47l.14-1.06c-.23-.09-.83.61-.74-.12-.05.15-.13.37-.28.31a7.05,7.05,0,0,0-2.55-2.36,6,6,0,0,1-2.45-2.7c.08.47-.12.37-.33.25.09.16-.24.36-.35.58l-.48-1.09c-.49.46-1-.5-1.35,0l.33.05c-.72.45-.34,1.72-.9,2.51.82-.49.28,1.63,1.52,1,0,.25-.28.18-.34.41.37-.24.6-.18.82.19l-.09.06c1,.57,1.1,1.18,1.9,2.18l.23-.43a.81.81,0,0,1,.14.55c.69-.36-.56-.52.16-1-.33,1,1.47,1.25.93,2.24.31.28.27-.49.58-.21l-.12.3.34-.22a.75.75,0,0,1-.15.8c0-.07-.18-.08-.25-.11,0,.5.82.58.83.75l-.17-.4c1,.57,1.79,1.82,3,2.18l.09-.22c.91.3.33.66,1.14,1.19h-.06a.81.81,0,0,1,.72.27c-.35,0,0,.68-.46.67,1,.34.58.08,1.61-.08l-.16.36c.39-.09.52-.2.93.06-.5,0-.17.62-.78.62.17,1.28,1.65.44,1.18,1.62,1-.43-.25-1,.09-1,.07-.39.8-.29,1,0s-.5,1.34.13,1.88c-.06-.06-.11,0-.17-.07.05.41.68.15.68.72.58-.33.35.35.92-.21l-.69-.35c.47.12,1.37-.31,1.6.48a1.4,1.4,0,0,1-.62.11c0,.31.4.14.41.46-.56.56-.81-.47-1.56-.32-.05.4,1,.14.3.64,1-.61.54.64,1.51.36l-.33.34c.12,0,.4-.05.52.06l-.62.29c.68-.12.41.91.94,1-.74-.57.19-.58.1-1.09,1.27.2-.26,1.38.92,2-.18,0-.36-.62,0-.63a1.56,1.56,0,0,1,.26.86c.77.41.18-.48.65-.5-.1.63.48,0,.89.1l-.27.4c.63.81.77-.69,1.29.1l-.68.36.48.1-.38.41c.65-.07.71.11,1.07.49.07-.35.5-.72.88-.52.11.4-.38.32.19.57-.27.19-.59.44-.6-.08-.11.12-.27.19-.38.31.11.45.67.48.87.58-.07-.06-.15-.13-.16-.21l1.11-.17c.05.23-.12.31-.29.38.19,0,.4-.1.66,0-.24.32-.4.69-.83.67.32,0,.65,0,1,0,0,.18.21.62,0,.7.36.44,1.42-.2,1.9.33a.44.44,0,0,1,.3-.11c.54.28.91,1,1.78.63l.22.79c.6,0-.31-1,.67-1,.71-.06.11.64.29.89.44-.28,1.12-.84,1.64-.2C151.66,57.5,151.52,57.38,151.32,57.39Zm-.4-4.57c.13-.09.39-.39.46-.1C151.21,53.27,151.12,53,150.92,52.82Zm-9.64.4c.1-.15.24-.06.38.14A.37.37,0,0,1,141.28,53.22Zm-27.13,0,0,0C114.41,53.39,114.33,53.3,114.15,53.17Zm-.52-.33a.19.19,0,0,0-.08.19c.07-.11.2-.09.34,0C113.88,52.87,113.82,52.77,113.63,52.84Zm24.31-8V45C137.66,45,137.79,44.91,137.94,44.85Z"/><path class="cls-1" d="M142.42,52.66a.74.74,0,0,1,0,.26A.19.19,0,0,0,142.42,52.66Z"/><path class="cls-1" d="M147,56.41h0a.18.18,0,0,0-.05.07Z"/><path class="cls-1" d="M123,50.28a.52.52,0,0,1,.19.27A.22.22,0,0,0,123,50.28Z"/><path class="cls-1" d="M110.4,52.91l.4,0c-.19,0-.22-.14-.29-.24C110.49,52.76,110.51,52.94,110.4,52.91Z"/><path class="cls-1" d="M108.14,49.13c-.07,0-.11,0-.18,0l0,.22C108.13,49.42,108.33,49.29,108.14,49.13Z"/><path class="cls-1" d="M110.48,51.27c.07-.4-.18-.33-.46-.32h0C109.84,51.48,110.16,51.38,110.48,51.27Z"/><path class="cls-1" d="M110,50.94a.46.46,0,0,1-.23,0C109.64,51.1,109.81,51,110,50.94Z"/><path class="cls-1" d="M112.84,53c-.1-.13-.19.49-.22.31C112.37,53.74,113.57,52.83,112.84,53Z"/><polygon class="cls-1" points="110.63 49.92 110.58 50.43 110.83 50.08 110.63 49.92"/><path class="cls-1" d="M112.49,50.78l-.36-.23a.18.18,0,0,1-.15.14C112.22,50.77,112.46,50.93,112.49,50.78Z"/><path class="cls-1" d="M112,50.69a.37.37,0,0,0-.34,0A.79.79,0,0,0,112,50.69Z"/><polygon class="cls-1" points="111.2 49.93 111.29 50.06 111.56 50.17 111.2 49.93"/><path class="cls-1" d="M116.77,51.78l.47-.06c.07-.16,0-.29-.2-.25S116.74,51.6,116.77,51.78Z"/><path class="cls-1" d="M115.71,50.18a.79.79,0,0,1,.12.41L116,50Z"/><path class="cls-1" d="M117,50.28c.07-.16.71-.37.16-.43C117.08,50,116.63,50.06,117,50.28Z"/><polygon class="cls-1" points="123.46 52.05 123.35 52.05 123.23 53.06 123.46 52.05"/><path class="cls-1" d="M129.59,50.34c-.49-.3-.2.61-.63.26-.15.22.35.29.2.48C129.51,50.86,129.66,51,129.59,50.34Z"/><path class="cls-1" d="M129.16,51.08l-.17.13A.52.52,0,0,0,129.16,51.08Z"/><polygon class="cls-1" points="122.27 30.7 122.06 30.33 122.09 30.75 122.27 30.7"/><path class="cls-1" d="M121.3,31l.24-.61-.47.41C121.15,30.82,121.31,30.85,121.3,31Z"/><path class="cls-1" d="M150.08,51.45l0,.16c0,.17.12.19.28.22Z"/><polygon class="cls-1" points="154.6 52.24 154.52 52.22 154.59 52.59 154.31 57.9 154.26 57.67 154.3 58.15 155.94 75.91 154.6 52.34 154.6 52.24"/><path class="cls-1" d="M149.72,58.33c.17.07.42,0,.6.05C149.89,58.4,149.84,57.61,149.72,58.33Z"/><path class="cls-1" d="M.81,27.9c.13-.43-.31-.37-.37-.46C.36,28.2.92,27.9.81,27.9Z"/><polygon class="cls-1" points="0.76 35.23 0.59 35.1 0.98 36.17 0.76 35.23"/><path class="cls-1" d="M1.09,41.94c.62-.72-.42-2.4-.19-3.63l.15-.2-.59-.52C.58,39.06,1.14,40.9,1.09,41.94Z"/><path class="cls-1" d="M.26,45.82c.22-.29.41.73-.11-.87a1.08,1.08,0,0,1,0,.17Z"/><path class="cls-1" d="M.11,45.12c-.17-.72-.13.52,0,0Z"/><path class="cls-1" d="M1.14,48.36C1,48.08.8,47.79.63,47.5c-.1.24.11,1.09-.1.82C1,49.24,1.06,49,1.14,48.36Z"/><path class="cls-1" d="M1.93,49.07l-.26-.44C1.63,48.73,1.65,48.87,1.93,49.07Z"/><path class="cls-1" d="M1.14,47.69c.17.32.35.63.53.94.07-.17.28-.25-.23-.44C1.67,48.21,1.41,48.08,1.14,47.69Z"/><path class="cls-1" d="M1.08,47.08c0-.56-.07-1.25.41-.39C1,45,.51,45.33,1.08,47.08Z"/><path class="cls-1" d="M1.87,42.17c0-.24.08-.47.11-.71l-.31-.56C1.83,41.18,1.64,42.24,1.87,42.17Z"/><path class="cls-1" d="M3.52,54.5c.16,0,.07-.59.19-.76-.21-.22-.41-.43-.59-.65C3.22,53.52,3.64,54.31,3.52,54.5Z"/><path class="cls-1" d="M3.71,53.74a13.1,13.1,0,0,0,1,.91C4,53.7,3.83,53.58,3.71,53.74Z"/><path class="cls-1" d="M2.73,49c-.35-.48-.72-1-1-1.46.36.6.76,1.19,1.15,1.76Z"/><path class="cls-1" d="M8.35,57.8a8.76,8.76,0,0,1-.91.09A8.27,8.27,0,0,0,9,57.76C8.78,57.79,8.56,57.79,8.35,57.8Z"/><path class="cls-1" d="M11.49,58.18c-.48.27.61.52.11.68a5.4,5.4,0,0,0,1.86-.46A3.78,3.78,0,0,1,11.49,58.18Z"/><path class="cls-1" d="M14.36,58.1a6.77,6.77,0,0,0-.9.3A3.53,3.53,0,0,0,14.36,58.1Z"/><path class="cls-1" d="M6.62,56.26a1.6,1.6,0,0,0,.87.88c-.13-.21-.24-.4-.36-.62Z"/><path class="cls-1" d="M7.12,56.5v0a7.72,7.72,0,0,0,1.1.44A7.28,7.28,0,0,1,7.12,56.5Z"/><path class="cls-1" d="M6.5,56.18l.12.08C6.6,56.19,6.57,56.17,6.5,56.18Z"/><path class="cls-1" d="M3.38,51.68c.48.52,1.4,1.57,1.08.25C4,51.65,4.13,52.42,3.38,51.68Z"/><path class="cls-1" d="M6.2,55.35a6.79,6.79,0,0,1-1-1c-.07.09,0,.4-.37.19A7.85,7.85,0,0,0,6.2,55.35Z"/><path class="cls-1" d="M6.87,55.63a6.35,6.35,0,0,1-.67-.28c.14.12.29.23.44.34Z"/><path class="cls-1" d="M12.56,57.64a4.63,4.63,0,0,1,1.53-.18,14.23,14.23,0,0,0-1.82-.19C12.17,57.4,11.91,57.63,12.56,57.64Z"/><path class="cls-1" d="M10.12,57.36h.12C10.17,57.31,10.12,57.29,10.12,57.36Z"/><polygon class="cls-1" points="19.64 57.61 19.55 57.53 19.53 57.6 19.64 57.61"/><path class="cls-1" d="M12.17,57.19a1.7,1.7,0,0,0-1.06.1c.38,0,.77,0,1.16,0C12.31,57.21,12.32,57.17,12.17,57.19Z"/><path class="cls-1" d="M15.92,58a7.32,7.32,0,0,0-.79-.26C15.36,57.83,15.83,58.06,15.92,58Z"/><path class="cls-1" d="M10.41,57.49h-.08C10.49,57.61,10.47,57.56,10.41,57.49Z"/><path class="cls-1" d="M10.41,57.49a3.06,3.06,0,0,0,.7-.2c-.3,0-.6,0-.87.06Z"/><path class="cls-1" d="M21.37,54.9c-.09.39-1.28.74-2.3.29-1,.28-.39,1.59.48,2.34,0-.17,0-.33,1.09-.54-.36-.23-2.3-.56-1.42-.9,1.39-.17,1.13.17,1.8.39-.56-.5,1.76-.7,1.47-1.43l-1.21.24C21.26,55.18,21.7,55,21.37,54.9Z"/><path class="cls-1" d="M17.56,57.45l-.43,0a5,5,0,0,1,1.48.58c.72-.18.87-.33.92-.46l-2.11-.1Z"/><path class="cls-1" d="M15.2,57.43c.35-.42,1.39-.57.77-1.06-1.26,0-.89.34-1.65.5,2,0-.59.22.87.51a8.9,8.9,0,0,1-1.1.08,10.58,10.58,0,0,1,1,.23l0,0h0c-.08-.06-.11-.09,0-.06h0a.34.34,0,0,1,.09-.15c.59.1.09.11-.09.15,0,0,0,0,0,.07h0l2-.18A11.5,11.5,0,0,0,15.2,57.43Z"/><path class="cls-1" d="M5.84,52.45a.12.12,0,0,1,0,.11C5.92,52.64,6,52.66,5.84,52.45Z"/><path class="cls-1" d="M6.16,53.29a1,1,0,0,1-.64-.52c-.14-.44.17-.11.27-.21-.26-.17-.83-.75-.49.2l.14.09L6,54.18c.19.41.34.7.25.67A7.82,7.82,0,0,0,6.16,53.29Z"/><path class="cls-1" d="M10.54,56.16c.61,0,1.2,0,1.77-.1l-.86-.41,0,.23C10.5,55.72,10.68,56,10.54,56.16Z"/><polygon class="cls-1" points="19.83 57.83 19.6 58.28 20.59 57.66 19.83 57.83"/><polygon class="cls-1" points="22.04 57.81 21.95 58.2 22.54 57.98 22.04 57.81"/><path class="cls-1" d="M109.45,17.12a4.49,4.49,0,0,0-.44-.21A3.06,3.06,0,0,0,109.45,17.12Z"/><path class="cls-1" d="M112.06,19.35l.19-.09C112.06,19.23,112,19.25,112.06,19.35Z"/><path class="cls-1" d="M76.24,54.72c.79.24,1.71.67,1.54.24l-.3-.38A2.84,2.84,0,0,1,76.24,54.72Z"/><path class="cls-1" d="M110.08,39.42l-.25,0-.17.6C109.79,39.85,109.94,39.66,110.08,39.42Z"/><path class="cls-1" d="M109.43,37.66l.9-.34A4.9,4.9,0,0,0,109.43,37.66Z"/><path class="cls-1" d="M92.78,8.68l-.67.24C92.93,9.19,92.64,8.86,92.78,8.68Z"/><path class="cls-1" d="M44.64,57.39a7.31,7.31,0,0,0,1.57.21C45.45,57.38,44.82,57,44.64,57.39Z"/><path class="cls-1" d="M113.43,14.42c-.29-.14-.45-.16-.51-.08C113.22,14.49,113.42,14.54,113.43,14.42Z"/><path class="cls-1" d="M48,57.52c-.11,0-.22-.06-.33-.09a7.34,7.34,0,0,1-1.48.17A2.38,2.38,0,0,0,48,57.52Z"/><path class="cls-1" d="M25.11,13a1,1,0,0,1-.17,0C25,13.06,25,13,25.11,13Z"/><path class="cls-1" d="M5.78,21.17c.13-.18.37-.43.59-.68A3.27,3.27,0,0,0,5.78,21.17Z"/><path class="cls-1" d="M30.92,58c-.47,0-.07.05,0,0Z"/><path class="cls-1" d="M28.64,56.33c.1,0,.18-.11.19-.21A.36.36,0,0,1,28.64,56.33Z"/><path class="cls-1" d="M52.53,54.59h0C52.43,54.51,52.45,54.52,52.53,54.59Z"/><path class="cls-1" d="M30.22,57.85a4.23,4.23,0,0,0,.6.12A4.92,4.92,0,0,0,30.22,57.85Z"/><path class="cls-1" d="M30.31,58.05l-.41,0C29.84,58.08,29.9,58.13,30.31,58.05Z"/><path class="cls-1" d="M31.57,58a4.59,4.59,0,0,1-.75,0c.09,0,.13.05.1.07Z"/><path class="cls-1" d="M61.21,3.57l-.1,0C60.66,3.75,60.87,3.71,61.21,3.57Z"/><path class="cls-1" d="M87.12,47.74s0,0,0,0h.07Z"/><path class="cls-1" d="M88.6,47a1.59,1.59,0,0,1-1.45.79L88,48.83Z"/><path class="cls-1" d="M102.53,12.68c.27.28.52.6.78.9-1.47-.15-2.23-.74-1.58.21.41-.57,1.35,0,2.3.48s1.84,1.11,2.29.58l.46.64c-.17-.12-.24-.08-.41-.2.82,1.32,1.43-.19,2.85,1.06.46.47.67.92.23.77l1.34.65c.31.28.07.4-.23.11.6.42,1.16.9,1.73,1.36l0,0a7.6,7.6,0,0,1,1.48.43c.27.54-.3-.1-.31.13l1.1.63c.1.6-.85.12-1.41-.5-.07.89.16,1,.56,1.18a2.63,2.63,0,0,1,1.52,1.6c-.3-.24-.58-.49-.89-.72-.06,1.06.72,1.52,1.19,2.78,0-.38-.79-2.7.34-2A2.66,2.66,0,0,0,117,23.94c-.36.31.16.77.72,1.43l-.54.35c.73.6.92.34,1.42.56a.74.74,0,0,1,.13.44.49.49,0,0,1-.14.24,2.09,2.09,0,0,1-.55.3c0,.14.17.09.38,0s.46-.29.56.13a3.67,3.67,0,0,0-.23.76,8.69,8.69,0,0,1-.65,1.65c-.83.57-.18-.38-.55-.25l-.21,1c-.16.15-.23,0-.26-.08-.36.66.43.47-.24,1.43.15.36-.45.62-1.13,1s-1.51.73-1.77,1.52c-.38.1-.14-.41-.38-.52a32.44,32.44,0,0,0-1.82,3l-1.36.51c1.1-.23.42,1-.25,2.1a6.65,6.65,0,0,0,1-.12c-.43.48-.87,1-1.34,1.38-.25,0-.21-.25-.11-.64l-.2.32c-.7.17-.61-.33-.41-.88l.78,0c.15-.59.23-1.2-.06-1.45a1.94,1.94,0,0,1-.38.51c0-.16,0-.28,0-.3s-.15.21-.31.51l-.75-.37.07.29-2.22.92c-.51.78-1,1.53-1.62,2.33A9.46,9.46,0,0,1,102,44.24c.39-.76-.25-.83-.49-1.4,1,.3,1.72-1.24,3-1.78-.67.29-.67-.05-.56-.23L102,42.56c-.18-.47-.66-.11-1.34,0,.89.69-1.4,1.4-2.2,2.12-.19-.28-.11-.7,1-1.16-1.53-.09-1.14,1.82-2.66,1.74.28-.12.45-.14.5-.34-.55.54-2.26,1-2,.55l.28-.12c-.94.36-2.41.84-3.63,1.38s-2.21,1.11-2.24,1.55a4.43,4.43,0,0,1,0-1.25q-1.32,1.86-2.73,3.77c.11-.8-1.51-2.14,0-3a4.66,4.66,0,0,0-2,.56c.34,0,1.06.83.64,1a10.47,10.47,0,0,0-2.6-.53c.52,0,.25,1.28-.53,1.44.08-.2-.31-1.09-.06-1.27-.55.52-1.11,1-1.67,1.5.43-.3-.12-.95-.61-1.17.24.17-1.65.31-2.14.53l.86.09c-2.19.27-1.86,1.94-4.06,2.27.23-.28.42-1.52-.7-1.48-.4.67-1.83,3.07-3.74,3.79L70,54.23c-.48.2-1,.37-1.46.56a36,36,0,0,1,4.5-4c-.86-.15-.29-.36-1.5-.16-.48-.24.6-.55,1-.62l-2.86.2c.22.67-2.1.93-1.93,1.47,1-.34,2-.7,3-1.08.22.65-1.54,2.15-3.61,2.25-.55-.21.25-1.23.18-1.45a4.11,4.11,0,0,1-2.08.52l.82-.46c-1.15-.11-1.76,1.08-3.19.57-.47,0-1.48-.74-1.52-.33.83.69,1.19,3,.72,3.66a17.24,17.24,0,0,1-3.14-.86c-.82-.55,1.07-1.52.37-2,0,.18-.43.44-.61.52-.51-.12.17-.58-.91-.42-.13.7-2.2.11-.47.62-1,.27-1.13-.07-2.37,0,.42.41-1,1.57-2.09,1.82.06-.18-.2-.39-.32-.48-2.18.06-3.37-.2-5.4-.12-.19-.15-1.18-.31-.78-.62a2.5,2.5,0,0,1-1.17.42c-1.23-.55,1.4-.15.44-.82-.06.4-1.59.6-2.48.88.3.6,2.07.05,3-.24,0,.85-1.48,1.79-3.6,2.26-1.69.26-.75-.53-1-.4-3.19-.06-2.68,1.55-5.34,1-1.06-.52-.07-1.07-.31-1.45,1.38-.22,2.13.3,3.06.26l-1.15-.23a3.4,3.4,0,0,1,1.85-.2c-.89-.46-5.37,0-7.82-.41-.43.18-1.19.37-.83.59l.78-.08c.71.43-1.46.61-.48.8a7.56,7.56,0,0,1-3.68.55l-.27-.61c0,.18,1,.36,1.37.18-.61.27-2.25-.83-2.92,0l1,.43c-1,.31-2.35,1-3.66.74.59.61.31-.07,1.23.65-.8-.89,3.33.06,2.05-.87.95.82,1.64.35,2.89,1,0-.2-.44-.39.65-.29a1.08,1.08,0,0,1,.24-.18l.08,0-.06,0s.05,0,0,0a1.25,1.25,0,0,1-.56-.3c.55-.47,2.29-.46,2.87-.71.65.09-.27.24.09.45l.87-.37c.09.45,1.74.73.21,1H35a5.36,5.36,0,0,0,2.62.11c.65.09,1.63-.53,1.07-.17l2.16-.33,0,.11c2.14,0,4.36-.88,6.83-.18a9.11,9.11,0,0,1,2.65-.25l.25.38c.92-.18,2.79.23,3.17-.19,1.05,1,4.49,0,6.13,0l0-.51a19.39,19.39,0,0,0,3.55-.62l-.13-.44c1.16-.47,3.1,0,5-.25-.11.18-.59.19-.94.13,2.38.77,4.66-1.33,6.8-.89a2,2,0,0,1,1.23-.2.33.33,0,0,0-.12,0l.21,0,.74.11a2.83,2.83,0,0,0-.63-.13,11,11,0,0,0,1.54-.45l.33.44.13,0c.61.08.42-.3,0-.61a4.29,4.29,0,0,0,.72-.41c.61.68,1.46-.57,2.26.12.31-.48,2.85-.89,3-1.82,0,.11.22.12-.09.2a3.67,3.67,0,0,0,1.84-.5l.42.53L87,50.91c.94.13,1.35.23.63.93,1.83-1.29,1.57-.74,3.07-1.93l0,.41c.61-.18,1.4-1,1.87-.84,1.6.28,6.68-2.22,10.26-3.31-1.16-.73,1.79-.27,1.49-1.18.32.14.85,0,.43.52,1.52-1.17,2.76-1,3.46-2.35.33.12-.13.57.12.6.1-.13.38-.53.64-.5s-.12.35-.31.62c1.63-1.12,1.32-1.93,1-2.67,1-.21,1.42-.53,1.65-1.39.43,0,1-.12.14.68.55-.38,3.55-2.18,3.15-2.77.26,0,.73-.59.81-.76a22.22,22.22,0,0,0,2.33-2.09l-.36.22c-.14-1,.72-1,1.47-1.94l0,.08c1.14-.81,1.3-1.07,1.45-1.32s.32-.44,1.44-1.54l-.5-.11c-.36-.41.12-.79.63-1.59a3.65,3.65,0,0,0,.53-1.44,2.3,2.3,0,0,0-.32-1.53,4.53,4.53,0,0,1,0,.74c-.47-.83-.1-3.28-.55-4,0-.21.31.14.53.32-1-2.19-.69.14-1.87-1.09.06-.47.92-.23.24-1.18-.09-.31-.86-.76-1.68-1.32a5.61,5.61,0,0,1-2-2c.07.43.12.85-.57.44a13.69,13.69,0,0,1-1.39-1.76A2.46,2.46,0,0,0,113,14.64c-.07-.15-.07-.24,0-.3-.83-.44-2.58-1.55-3.29-1.5.16-.94-1.17-1.56-2.38-2.1s-2.39-.9-2-1.56c-.83-.45-1.68-.86-2.52-1.28l.14-.11a4.39,4.39,0,0,0-3-.77c-.34-.26,0-.27.06-.33a11.63,11.63,0,0,0-2.43-1.2A11.13,11.13,0,0,0,95,5.25l0-.54a8.49,8.49,0,0,1-2.24-1A10.15,10.15,0,0,0,89,2.64c0-.05.11-.13.33-.14A8.78,8.78,0,0,1,87,2c-.77-.24-1.54-.54-2.26-.79C83.29.75,82,.48,81.36,1.31l-1.94.18c2.4.47-.46.72.49,1.16-.94,0-2.38-.83-1.2-.8l.17.1c.55-.88-3-.65-2.85-1.26C71.21.35,66.49-.19,62,.07l.56.69L61,.83c-.42-.15-.6-.54.53-.58-.62-.38-1.86.48-1.87.64C57.39.8,60.39,0,59.72,0l-.91.14L59,.21A3.56,3.56,0,0,1,56.93,1c-.86-.05-.48-.4-.82-.39,0,0-.12-.06-.52,0-.66,0-1.32.11-2,.18l.86.47c-.83.4-1.84.22-.85.74-1.47-.86-7.33.77-8.17.67a11.55,11.55,0,0,1-3.78,1.14c.39,0,.74.62-.53.83.17-1.41-2.43-.06-3.68-.71,1.07.37-3.53,1.09-1.87,1.59-1.07.19-.19-.47-1.07-.55C32.18,6.2,29,6.33,26,7.69c0,.18.61.24.07.73-.63-.06-1.27-.14-1.9-.18-.56.34-.14,1.17-1.45,1.08.21.07.53.17.16.4a30.56,30.56,0,0,0-8.51,4.46c-2.67,1.89-5.16,3.94-8,5.77.86-.42.47,0,0,.54.36-.26.31.31.54.41l-1.17.76-1.12.86c.1.4-.35,1-.78,1.53s-.77,1.16-.59,1.45l.39-.77c0,.68.56.58,1.2.43s1.41-.34,1.73,0c0-.72.77-1.16,1.54-1.64A3.33,3.33,0,0,0,10,21.4c.45-.15-.05.47.27.47.07-.62.46-1.09,1.4-1.71l0,.16A16.34,16.34,0,0,1,13.21,19a12.45,12.45,0,0,1,1.48-1l1.61-.88,2-1-.46-.27a2.81,2.81,0,0,1,1.24-.37c.21-.51-.27-.28-.74,0s-.95.54-.82,0c.67.13,1.82-.52,3-1.12s2.3-1.09,2.83-.75c1-.5-.55-.36.51-.84l.41.14.11-.46c.73-.25,1.23-.07,1.35.15a3.69,3.69,0,0,0-.62.38c1-.1,2.51-1.18,2.87-1.19L26.87,12c2.84-1.47,6.66-2.31,9.49-3.68l-.29-.16c2.19-1,1.9-.26,4.39-1.06l-.08.08a4.7,4.7,0,0,1,1.82-.74c-.59.4,1.32.24.54.7,2.43-1,1.17-.61,2.69-1.76l.46.29a3.06,3.06,0,0,1,1.8-1c-1,.5.92.42-.19,1,2.83.31,3.89-1.48,5.31-.5,1.1-1.2-2.43-.21-1.77-.53-.64-.24.92-.92,1.79-.94s1.66,1.07,3.83.82c-.21,0-.22.1-.44.12.85.17,1.56-.55,2.61-.21.5-.67,1.3-.08,1.4-.88l-2,.36c1.12-.3,2.12-1.34,4.05-1a3.75,3.75,0,0,1-1.07.55c.57.2,1.06-.22,1.64,0-.11.81-2.44.32-3.6,1,.61.27,2.25-.77,1.71.14.8-1.14,2.15,0,3.58-.9l-.07.48A3.44,3.44,0,0,1,65.6,4l-.75.65c1.18-.59,2.3.41,3.43.1-2.38,0-.54-.56-1.56-.89,1.48-.35,1.92,0,2.38.34a3.27,3.27,0,0,0,2.61.71c-.44,0-1.66-.33-1-.54A5.47,5.47,0,0,1,72.57,5c2.18,0-.31-.51.63-.76.72.61,1.09-.16,2.07-.28l0,.48c2.45.52.75-.94,3-.35l-1,.57,1.18,0-.3.52A4.88,4.88,0,0,1,81,5.32c-.23-.38.3-.85,1.4-.67.69.41-.5.38,1.06.58-.41.24-.85.55-1.44,0-.1.15-.39.24-.49.38A7.35,7.35,0,0,0,84,6.13a2.12,2.12,0,0,1-.58-.23l2.35-.2c.31.25,0,.34-.31.42a8.3,8.3,0,0,1,1.48,0c-.26.34-.31.73-1.27.7.72,0,1.44.06,2.17.09.1.2.94.72.63.79,1,.55,3,.08,4.37.89a1.28,1.28,0,0,1,.62,0c1.35.61,2.38,1.51,4.18,1.73.21.34.41.68.6,1,1.3.45-.83-1.39,1.34-.64,1.55.51.27.8.69,1.22.84.07,2.47.05,3.44,1.33A9.45,9.45,0,0,1,102.53,12.68ZM115.81,22.8c-.29-.17-1-.44-.9-.81C115.56,21.89,115.56,22.29,115.81,22.8Zm-8.39,17.25a1.26,1.26,0,0,1,1-.49A2.5,2.5,0,0,1,107.42,40.05ZM36.05,57.59l0,0C36.85,57.74,36.58,57.67,36.05,57.59Zm-1.59-.19c-.16.07-.14.14-.08.21.11-.13.47-.14.87-.11C35.14,57.37,34.93,57.29,34.46,57.4ZM56,.81l.33.09C55.59,1.11,55.77,1,56,.81Z"/><path class="cls-1" d="M109.5,37.87a.43.43,0,0,1,.27.12C109.83,37.85,109.77,37.77,109.5,37.87Z"/><path class="cls-1" d="M92.9,8.63l-.05,0a.16.16,0,0,0-.07.07Z"/><path class="cls-1" d="M58.66,52.28a1.52,1.52,0,0,1,.64.21C59.3,52.37,59.15,52.28,58.66,52.28Z"/><path class="cls-1" d="M26.07,58.26l1-.12a2.11,2.11,0,0,1-.91-.16C26.2,58.09,26.39,58.25,26.07,58.26Z"/><path class="cls-1" d="M17.33,55.14c-.14,0-.31,0-.45,0l0,.23C17.54,55.42,18,55.25,17.33,55.14Z"/><path class="cls-1" d="M25.14,56.65c-.07-.41-.71-.27-1.42-.21h.13C23.63,57,24.39,56.83,25.14,56.65Z"/><path class="cls-1" d="M23.56,56.46a4.85,4.85,0,0,1-.66,0C22.82,56.68,23.17,56.51,23.56,56.46Z"/><path class="cls-1" d="M32.46,57.69c-.34-.1-.21.53-.4.36C31.69,58.57,34.3,57.4,32.46,57.69Z"/><polygon class="cls-1" points="24.58 55.31 24.83 55.81 25.23 55.41 24.58 55.31"/><path class="cls-1" d="M30.16,55.69,29,55.55c0,.09-.12.14-.3.17C29.43,55.74,30.19,55.84,30.16,55.69Z"/><path class="cls-1" d="M28.73,55.72a2.63,2.63,0,0,0-.91.09A5.46,5.46,0,0,0,28.73,55.72Z"/><polygon class="cls-1" points="26.13 55.17 26.46 55.27 27.26 55.31 26.13 55.17"/><path class="cls-1" d="M42.31,55.57l1.23-.19c.12-.18-.22-.27-.68-.18C42.57,55.33,42.12,55.41,42.31,55.57Z"/><path class="cls-1" d="M38.55,54.3c.34.09.36.2.55.36l0-.62Z"/><path class="cls-1" d="M42.13,54.05c.12-.17,1.77-.55.21-.46C42.22,53.77,41,54,42.13,54.05Z"/><polygon class="cls-1" points="60.68 53.84 60.37 53.87 60.5 54.88 60.68 53.84"/><path class="cls-1" d="M76.46,49.42c-1.45,0-.22.67-1.55.59-.3.3,1.08.07.78.33C76.5,49.94,77,50,76.46,49.42Z"/><path class="cls-1" d="M75.69,50.34a3.46,3.46,0,0,0-.41.23A2,2,0,0,0,75.69,50.34Z"/><polygon class="cls-1" points="3.06 23.66 2.32 24.36 2.96 24.02 3.06 23.66"/><path class="cls-1" d="M2.6,25.66l-.67-.16.16.81C2.19,26.11,2.38,25.72,2.6,25.66Z"/><path class="cls-1" d="M116.4,25.52l.16-.05c0-.21-.07-.38-.31-.71Z"/><polygon class="cls-1" points="108.17 16.95 108.33 17.08 108.37 16.38 108.17 16.95"/><path class="cls-1" d="M99.2,12.36c.36.2.86.29,1.2.51C99.57,12.54,99.42,11.66,99.2,12.36Z"/><text class="cls-2" transform="translate(14.07 36.47) scale(0.85 1)">RedRooms</text></g></g></svg>